# xmcd
#
# Track frame offsets: 
#        150
#        17678
#        34641
#        54881
#        66846
#        89750
#        108618
#        120880
#        140180
#        155467
#        173143
#        191294
#        206333
#        222583
#        239238
#        258095
#        273103
#        296493
#
# Disc length: 4168 seconds
#
# Revision: 0
# Processed by: cddbd v1.5.1PL2 Copyright (c) Steve Scherf et al.
# Submitted via: ExactAudioCopy v0.95b4
#
DISCID=06104612
DTITLE=dj timij - Hots tuff
DYEAR=2006
DGENRE=Beat
TTITLE0=Housebreakers ft. The Ragga Twins - Jump on it
TTITLE1=Splitloop - Still in love
TTITLE2=Tricknology - 8 operator
TTITLE3=Circuit Breaker and Deckart - Supa! (Infecto rmx)
TTITLE4=Rennie Pilgrem - Celeb (Rennies Paisley mix)
TTITLE5=Medcab - Dance (original dance mix)
TTITLE6=Snog - Real Estate Man
TTITLE7=Breaking Stevens - Hotstuff
TTITLE8=Etostone - So good
TTITLE9=Bad Ass Rippa - The analogue life rmx
TTITLE10=The Rogue Element - Calm feat. Ras B
TTITLE11=SCAM - T.B.A.
TTITLE12=JDS - Disco Rocker
TTITLE13=X-Man - House of jealous lovers
TTITLE14=Yer Men - Wierd Therapy (Nervously Breakin' down rmx)
TTITLE15=Beaty school - Beatbox baby (Julian Napolitano mix)
TTITLE16=Move-Ya! and Steve Lavers - Rock me
TTITLE17=Malente - i sell marihuana (Dr. Rubberfunks Star Boogie RMX)
EXTD=
EXTT0=
EXTT1=
EXTT2=
EXTT3=
EXTT4=
EXTT5=
EXTT6=
EXTT7=
EXTT8=
EXTT9=
EXTT10=
EXTT11=
EXTT12=
EXTT13=
EXTT14=
EXTT15=
EXTT16=
EXTT17=
PLAYORDER=
